<?xml version="1.0"?>
<!DOCTYPE svg PUBLIC "-//W3C//DTD SVG 1.1//EN"
         "http://www.w3.org/Graphics/SVG/1.1/DTD/svg11.dtd">
<svg 
     xmlns="http://www.w3.org/2000/svg"
     xmlns:xlink="http://www.w3.org/1999/xlink"
     xmlns:html="http://www.w3.org/1999/xhtml"
     width="397" height="198"
     >
 <g>
  <title>Новаторов 3 - Регулятор - ТРМ210</title>
  <path id="svg_1" d="m0,0l397,0l0,198l-397,0l0,-198z" fill="#231f20"/>
  <path id="svg_2" d="m349.600006,16c2.769989,-2.79 5.889984,-5.19 9.269989,-7.19c3.050018,2.02 6.190002,4.009999 8.75,6.66c1.01001,3.96 -1.98999,7.489999 -3.220001,11.079999c-3.660004,0.700001 -7.440002,0.900002 -11.070007,-0.119999c-2.470001,-2.880001 -3.029999,-6.82 -3.72998,-10.43z" fill="#fefefe"/>
  <path id="svg_3" d="m323.140015,15.86c0.779999,-3.089999 3.73999,-5.24 6.789978,-5.73c3.660004,-1.02 7.369995,0.34 10.779999,1.61c0.029999,0.89 0.080017,2.67 0.110016,3.56c-3.029999,-1.01 -6.470001,-1.61 -9.070007,0.78l1.040009,0.84c-0.580017,0.18 -1.740021,0.530001 -2.320007,0.709999c0.51001,-2.059999 -1.059998,-3.339999 -2.5,-4.359999c-3.839996,1.629999 -3.320007,6.57 -1.809998,9.68c0.899994,-2.200001 -1.230011,-9.210001 2.980011,-7.160001l0.159973,0.95c-0.559998,0.550001 -1.699982,1.66 -2.259979,2.219999c0.630005,0.080002 1.899994,0.240002 2.529999,0.320002l0.089996,-1.76c0.699982,0.449999 1.389984,0.91 2.089996,1.369999c1.179993,3.530001 5.160004,3.280001 8.029999,2.200001c-0.519989,-1.780001 -1.290009,-3.48 -1.799988,-5.26c2.069977,-0.48 4.139984,0.03 6.139984,0.6c-0.910004,1.17 -1.699982,2.42 -2.380005,3.73c-0.319977,0 -0.959991,-0.01 -1.279999,-0.01c0.119995,1.01 0.350006,3.02 0.460022,4.030001c-3.77002,1.639999 -8.060028,2.85 -12.120026,1.529999c-4.159973,-0.969999 -7.069977,-5.719999 -5.659973,-9.849999z" fill="#fefefe"/>
  <path id="svg_4" d="m350.630005,16.27c2.589996,-2.3 5.339996,-4.43 8.359985,-6.150001c2.670013,2.26 6.570007,3.71 8.100006,6.95c-0.880005,1.59 -3.119995,0.300001 -4.449982,0.460001l0.139984,2.959999c1.350006,-0.549999 2.630005,-1.25 3.899994,-1.99c-1.029999,2.34 -1.820007,4.799999 -3.119995,7c-3.149994,1.23 -6.570007,0.559999 -9.809998,0.110001c-0.799988,-1.67 -1.579987,-3.360001 -2.329987,-5.050001c1.839996,1.82 3.799988,4 6.649994,3.91c2.559998,-0.07 6.48999,-0.309999 6.75,-3.719999c-1.619995,0.280001 -3.240021,0.639999 -4.880005,0.77c-0.959991,-0.76 -1.820007,-1.610001 -2.589996,-2.550001c1.359985,-3.209999 4.609985,-2.689999 7.399994,-2.17c-0.850006,-3.879999 -5.679993,-3.879999 -8.779999,-3.159999c-3.200012,0.65 -4.040009,4.150001 -4.940002,6.759999c-0.149994,-1.379999 -0.279999,-2.75 -0.399994,-4.129999z" fill="#231f20"/>
  <path id="svg_5" d="m31.790001,13.86c0.540001,-0.009999 1.619999,-0.03 2.149998,-0.04c-1.27,1.81 -2.599998,3.58 -3.959999,5.33c1.220001,1.75 2.529999,3.460001 4.220001,4.780001c0.439999,-2.380001 0.489998,-4.809999 0.549999,-7.220001c1.599998,0 3.200001,0 4.810001,0c-0.010002,2.610001 0.16,5.240002 -0.140003,7.85l-1.719997,0.790001c-0.07,-2.32 -0.060001,-4.640001 -0.049999,-6.970001c-0.25,0.01 -0.75,0.02 -1,0.030001c-0.220001,2.09 0.109997,4.4 -1.050003,6.26c-1.329998,0.280001 -2.709999,0.18 -4.069998,0.190001c-0.880001,-1.290001 -1.77,-2.57 -2.67,-3.85c-0.01,0.959999 -0.030001,2.879999 -0.040001,3.83l-2.1,0.030001c0,-3.6 0,-7.190001 0.01,-10.790001c0.52,0.01 1.560001,0.02 2.08,0.02c0.02,0.78 0.060001,2.32 0.08,3.09c0.970001,-1.1 1.940001,-2.22 2.900002,-3.330001z" fill="#fefefe"/>
  <path id="svg_6" d="m66.82,13.87c1.580002,-0.02 3.169998,-0.03 4.75,-0.059999c0.150002,0.419999 0.459999,1.259999 0.610001,1.679999c-1.489998,0.39 -2.980003,0.809999 -4.449997,1.26c1.379997,0.790001 3.579994,0.67 4.379997,2.33c1.029999,2.360001 0.120003,6.460001 -3.059998,6.219999c-2.240005,0.280001 -3.510002,-2.699999 -2.360001,-4.459999c0.639999,0.75 1.909996,2.25 2.549995,3c1.220001,-1.370001 1.290001,-3.09 0.889999,-4.799999c-1.25,0.459999 -2.5,0.939999 -3.75,1.419998c0.100006,-2.199999 0.280006,-4.4 0.440002,-6.589999z" fill="#fefefe"/>
  <path id="svg_7" d="m195.179993,13.23c4.320007,0.88 8.730011,0.67 13.040009,-0.129999c2.190002,-0.51 1.75,2.21 1.889999,3.52c-1.509995,0.279999 -3.029999,0.529999 -4.460007,1.08l-0.589996,0.07l-0.809998,-1.43c1.330002,-0.53 4.699997,0.32 4.559998,-1.74c-1.729996,-0.64 -3.699997,-0.410001 -5.5,-0.71c-0.089996,3.179999 -0.149994,6.37 -0.289993,9.55c2.869995,0.73 5.849991,0.689999 8.789993,1.019999c-3.050003,0.93 -6.289993,0.440001 -9.419998,0.530001c0.430008,-2.99 0.630005,-6.07 -0.270004,-9c-0.470001,0.309999 -1.399994,0.93 -1.860001,1.24c-1.529999,2.33 -0.029999,5.210001 -0.25,7.800001c-0.729996,-0.08 -2.179993,-0.26 -2.909988,-0.35c-0.5,-2.870001 1.349991,-7.360001 -2.400009,-8.51c0.12001,-0.74 0.360001,-2.21 0.479996,-2.940001z" fill="#54b54b"/>
  <path id="svg_8" d="m297.720001,13.72c2.399994,0.27 6.619995,-0.3 6.649994,3.21c0.51001,2.84 -2.179993,4.039999 -4.51001,4.199999c-0.029999,1.210001 -0.069977,2.42 -0.099976,3.630001c-0.52002,-0.030001 -1.559998,-0.09 -2.080017,-0.130001c0.040009,-3.629999 0.02002,-7.269999 0.040009,-10.909999z" fill="#fefefe"/>
  <path id="svg_9" d="m49.23,14.22c1.189999,-1.18 3.380001,-0.63 3.990002,0.94c1.27,2.77 1.27,6.16 -0.139999,8.860001c-1.230003,2.299999 -4.630001,1.279999 -5.030003,-1.060001c-0.73,-2.809999 -1.049999,-6.519999 1.18,-8.739999z" fill="#fefefe"/>
  <path id="svg_10" d="m59.150002,18.719999c-0.84,-3.169999 2.489998,-6.969999 5.369995,-4.209999c2.640007,2.949999 -0.629997,6.26 -2.839996,8.280001c1.650002,0.259998 3.260002,0.669998 4.830002,1.23c-2.420006,1.279999 -5.170002,0.799999 -7.77,0.73c0.359997,-3.309999 3.98,-4.84 4.679996,-7.82c-0.939999,-3.47 -2.649998,1.289999 -4.269997,1.789999z" fill="#fefefe"/>
  <path id="svg_11" d="m79.110001,13.91c2.150002,-1.11 4.379997,0.73 4.510002,2.91c0.719994,3.470001 0.309998,9.49 -4.720001,8.559999c-1.690002,-3.5 -2.590004,-8.309999 0.209999,-11.469999z" fill="#fefefe"/>
  <path id="svg_12" d="m89.510002,14.04c1.869995,0.21 4.720001,-1.26 5.650002,1.11c-1.480003,0.64 -3.020004,1.15 -4.530006,1.75c1.389999,0.68 3.630005,0.48 4.160004,2.32c1.309998,2.25 0.110001,6.070002 -2.830002,6.09c-2.389999,0.4 -2.989998,-2.359999 -3.629997,-4c1.449997,0.640001 2.790001,1.5 4.220001,2.18c0.549995,-1.369999 1.029999,-2.879999 0.099998,-4.209999c-1.209999,0.24 -2.389999,0.619999 -3.580002,0.959999c0.129997,-2.07 0.279999,-4.139999 0.440002,-6.2z" fill="#fefefe"/>
  <path id="svg_13" d="m142.399994,13.34c2.980011,0.61 1.5,3.969999 2.050003,5.99c0.930008,-1.719999 1.820007,-3.47 2.710007,-5.23c0.519989,0.03 1.569992,0.089999 2.089996,0.12c-0.039993,3.44 -0.039993,6.88 0,10.329999c-0.5,0.070002 -1.479996,0.210001 -1.970001,0.280001c-0.169998,-1.789999 -0.350006,-3.58 -0.520004,-5.379999c-1.279999,2.049999 -1.860001,4.859999 -4.369995,5.789999c-0.279999,-3.959999 -0.309998,-7.940001 0.009995,-11.9z" fill="#fefefe"/>
  <path id="svg_14" d="m151.979996,18.1c-2.559998,-1.720001 0.730011,-5.320001 3.12001,-4.360001c3.509995,0.5 2.039993,4.780001 2.619995,7.200001c0.899994,2.379999 -1.410004,4.519999 -3.75,3.949999c-2.470001,0.120001 -3.770004,-2.9 -2.369995,-4.799999c0.839996,1.01 1.709991,1.99 2.610001,2.950001c1.209991,-0.1 1.73999,-0.92 1.579987,-2.070002c-0.73999,-0.49 -2.209991,-1.469999 -2.949997,-1.949999c1.589996,-0.99 3.809998,-1.860001 1.699997,-3.700001c-0.639999,0.700001 -1.919998,2.09 -2.559998,2.780001z" fill="#fefefe"/>
  <path id="svg_15" d="m159.809998,13.48c3.639999,0.14 3.229996,4.18 4.229996,6.700001c1.170013,-2.48 0.950012,-6.320001 4.389999,-6.8c0.230011,3.759999 0.150009,7.53 0.150009,11.3l-2.009995,0.09c-0.090012,-1.59 -0.180008,-3.18 -0.270004,-4.76c-0.540009,1.789999 -1.12001,3.58 -1.779999,5.34c-1.419998,-1.450001 -2.070007,-3.4 -3.12001,-5.1c0.210007,1.48 0.400009,2.969999 0.580002,4.450001l-2.23999,-0.1c0.009995,-3.700001 -0.029999,-7.41 0.069992,-11.120001z" fill="#fefefe"/>
  <path id="svg_16" d="m178.610001,13.67c2.419998,0.4 6.660004,-0.27 6.559998,3.35c0.479996,2.869999 -2.309998,3.66 -4.399994,4.4c-0.070007,0.82 -0.210007,2.459999 -0.279999,3.280001l-1.900009,0.039999c-0.099991,-3.690001 -0.099991,-7.379999 0.020004,-11.07z" fill="#fefefe"/>
  <path id="svg_17" d="m186.720001,13.42c3.169998,0.29 1.520004,3.99 2.139999,5.99c1.350006,-2.190001 2.179993,-4.9 4.610001,-6.19c0.419998,3.820001 0.279999,7.669999 0.25,11.499999l-2.149994,0.030001c-0.040009,-1.780001 -0.090012,-3.549999 -0.160004,-5.32c-1.400009,2.08 -1.990005,5.01 -4.680008,5.82c-0.199997,-3.940001 -0.139999,-7.889999 -0.009995,-11.83z" fill="#fefefe"/>
  <path id="svg_18" d="m203.309998,13.89c1.800003,0.299999 3.770004,0.07 5.5,0.71c0.139999,2.059999 -3.229996,1.21 -4.559998,1.74l0.809998,1.43l0.589996,-0.07c0.830002,0.16 2.5,0.48 3.340012,0.639999c-0.01001,0.459999 -0.029999,1.379999 -0.029999,1.84c-1.26001,0.01 -2.520004,0.029999 -3.780014,0.039999c0.020004,0.59 0.050003,1.76 0.060013,2.34c2.019989,-0.01 4.039993,-0.01 6.049988,-0.049999c0.280014,-2.880001 0.330002,-5.77 0.360001,-8.66c1.900009,0 3.810013,-0.01 5.720001,-0.01c0.040009,3.66 0.040009,7.32 0,10.969999l-2.080002,-0.17c0,-2.809999 0,-5.629999 0.01001,-8.449999c-0.37001,-0.01 -1.130005,-0.040001 -1.51001,-0.050001c-0.009995,2.84 -0.019989,5.74 -1.199997,8.400002l-0.779999,-0.080002c-2.940002,-0.33 -5.919998,-0.289999 -8.789993,-1.019999c0.139999,-3.18 0.199997,-6.370001 0.289993,-9.55z" fill="#fefefe"/>
  <path id="svg_19" d="m219.789993,13.27c2.090012,0.53 2.030014,2.459999 2.12001,4.199999c1.679993,0.610001 3.199997,1.58 4.819992,2.33l0.460007,-0.199999c1.459991,-0.130001 2.929993,-0.220001 4.399994,-0.309999c0,0.539999 0.01001,1.609999 0.020004,2.15c-1.509995,0.09 -3.029999,0.139999 -4.509995,0.4c-1.770004,2.51 -4.5,3.25 -7.450012,2.940001c-0.009995,-3.84 -0.089996,-7.68 0.139999,-11.51z" fill="#fefefe"/>
  <path id="svg_20" d="m233.679993,13.67c2.420013,0.45 6.610001,-0.34 6.710007,3.25c0.589996,2.91 -2.509995,3.68 -4.479996,4.6c-0.080002,0.799999 -0.240005,2.4 -0.320007,3.199999l-1.949997,0c0,-3.689999 -0.020004,-7.369999 0.039993,-11.049999z" fill="#fefefe"/>
  <path id="svg_21" d="m241.729996,13.84c2.230011,0.01 4.470001,0.01 6.710007,0.03c0.279999,3.080001 -2.740005,2.21 -4.680008,2.45l0.070007,1.889999c1.339996,0 2.669998,0.01 4.009995,0.02c-0.019989,0.460001 -0.069992,1.390001 -0.089996,1.860001c-1.649994,0.42 -4.710007,-0.790001 -4.300003,2.27c1.919998,0.349998 4.87001,-0.66 5.139999,2.219999c-2.309998,0.09 -4.610001,0.1 -6.910004,0.110001c0,-3.620001 0.050003,-7.230001 0.050003,-10.85z" fill="#fefefe"/>
  <path id="svg_22" d="m249.699997,13.84c2.130005,0 4.26001,0.01 6.400009,0.03c-0.200012,2.55 -2.389999,2.429999 -4.37001,2.429999c0.01001,2.970001 0.020004,5.940001 -0.169998,8.900002c-0.449997,-0.240002 -1.360001,-0.730001 -1.809998,-0.980001c-0.289993,-3.449999 -0.089996,-6.92 -0.050003,-10.379999z" fill="#fefefe"/>
  <path id="svg_23" d="m258.570007,22.41c-0.690002,-3.039999 -3.850006,-6.35 -1.649994,-9.37c0.939972,1.61 1.75,3.3 2.519989,5.000001c0.679993,-1.830002 1.359985,-3.73 2.859985,-5.080001c0.740021,3.580001 -1.139984,7.02 -2.269989,10.330001c-0.389984,1.48 -2.109985,1.279999 -3.26001,1.689999c-0.069977,-0.6 -0.199982,-1.809999 -0.269989,-2.41c0.519989,-0.039999 1.549988,-0.119999 2.070007,-0.16z" fill="#fefefe"/>
  <path id="svg_24" d="m264.670013,13.84c1.879974,0.01 3.75,0.01 5.639984,0.01c0.019989,3.559999 0,7.129999 0.049988,10.699999c-0.529999,0.060001 -1.589996,0.18 -2.119995,0.240002c-0.029999,-2.85 -0.019989,-5.700001 -0.009979,-8.550001l-1.450012,0.040001c-0.23999,2.929998 0.769989,8.619999 -3.679993,8.549999c-0.27002,-1.85 1.279999,-3.35 1.429993,-5.15c0.179993,-1.940001 0.100006,-3.89 0.140015,-5.84z" fill="#fefefe"/>
  <path id="svg_25" d="m272.700012,15.84c1.25,-2.49 4.470001,-1.95 6.759979,-1.79c-0.049988,3.54 -0.059998,7.070001 -0.039978,10.599999c-0.5,0.030001 -1.52002,0.09 -2.02002,0.120001c-0.070007,-1.07 -0.199982,-3.210001 -0.269989,-4.280001c-1.320007,1.880001 -2.01001,4.690001 -4.869995,4.559999c0.569977,-1.359999 1.160004,-2.699999 1.759979,-4.039999c-0.779999,-1.620001 -2.009979,-3.27 -1.319977,-5.17z" fill="#fefefe"/>
  <path id="svg_26" d="m280.429993,13.9c2.429993,0.06 5.26001,-0.73 7.339996,0.93c-0.75,0.46 -2.23999,1.370001 -2.97998,1.82c-0.01001,2.710001 -0.01001,5.41 -0.050018,8.110001c-0.529999,-0.030001 -1.589996,-0.09 -2.119995,-0.120001c-0.429993,-3.279999 1.619995,-7.959999 -2.410004,-9.52l0.220001,-1.22z" fill="#fefefe"/>
  <path id="svg_27" d="m289.519989,14.57c2.170013,-2.11 6.080017,-0.299999 6.330017,2.610001c0.820007,2.889999 -0.029999,7.719999 -3.820007,7.73c-4.970001,-0.030001 -5.399994,-7.51 -2.51001,-10.34z" fill="#fefefe"/>
  <path id="svg_28" d="m80.389999,14.99c2.029999,2.6 1.5,6.16 0.470001,9.07c-2.050003,-2.619999 -1.639999,-6.17 -0.470001,-9.07z" fill="#231f20"/>
  <path id="svg_29" d="m170.630005,14.12c2.099991,-0.02 4.209991,-0.03 6.309998,-0.05l-0.050003,2.08c-1.429993,0.040001 -2.850006,0.08 -4.270004,0.130001c0.050003,0.48 0.160004,1.449999 0.210007,1.939999c1.309998,-0.01 2.630005,-0.01 3.940002,-0.019999l0.050003,1.969999c-1.380005,0.030001 -2.76001,0.059999 -4.140015,0.1c0.020004,0.559999 0.060013,1.689999 0.080002,2.25c1.529999,0.01 3.060013,0.02 4.590012,0.029999l-0.01001,2.120001c-2.23999,0 -4.479996,0 -6.709991,0c0.009995,-3.52 0.009995,-7.040001 0,-10.55z" fill="#fefefe"/>
  <path id="svg_30" d="m196.259995,15.72c0.190002,-2.89 4.12001,-0.97 5.880005,-1.59c-0.679993,0.53 -2.059998,1.59 -2.740005,2.13c-0.179993,2.49 0.040009,5.059999 -0.649994,7.5l-0.490005,0.039999c-1.830002,-2.019999 -0.259995,-4.859999 -0.049988,-7.179998c-0.490005,-0.230001 -1.460007,-0.68 -1.950012,-0.900001z" fill="#fefefe"/>
  <path id="svg_31" d="m51.049999,24.1c-1.93,-2.65 -2.149998,-6.630001 0.09,-9.18c1,2.98 1.010002,6.23 -0.09,9.18z" fill="#231f20"/>
  <path id="svg_32" d="m74.580002,16.41c1.860001,0.15 1.5,1.969999 0.799995,3.200001c-1.439995,-0.730001 -2.479996,-1.91 -0.799995,-3.200001z" fill="#fefefe"/>
  <path id="svg_33" d="m180.660004,15.86c0.940002,0.349999 1.869995,0.72 2.800003,1.12c-0.420013,1.290001 -1.650009,1.65 -2.770004,2.07c0,-0.799999 -0.020004,-2.389999 -0.029999,-3.19z" fill="#231f20"/>
  <path id="svg_34" d="m235.779999,15.89c0.960007,0.329999 1.910004,0.679999 2.860001,1.06c-0.470001,1.269999 -1.669998,1.679998 -2.830002,2.08c0,-0.790001 -0.020004,-2.35 -0.029999,-3.14z" fill="#231f20"/>
  <path id="svg_35" d="m274.829987,18.059999c-0.889984,-1.769999 1.400024,-1.779999 2.460022,-2.099999c-0.01001,0.759999 -0.029999,2.27 -0.050018,3.03c-0.839996,-0.219999 -1.639984,-0.539999 -2.410004,-0.93z" fill="#231f20"/>
  <path id="svg_36" d="m290.609985,16.6c1.370026,-2.68 3.5,0.639999 3.220001,2.379999c0.080017,1.690001 -0.319977,4.6 -2.699982,3.83c-1.390015,-1.689999 -1.309998,-4.279999 -0.52002,-6.209999z" fill="#231f20"/>
  <path id="svg_37" d="m299.820007,15.93c0.889984,0.299999 1.769989,0.619999 2.649994,0.98c-0.179993,1.48 -1.470001,1.74 -2.640015,2.040001c0,-0.76 -0.009979,-2.27 -0.009979,-3.02z" fill="#231f20"/>
  <path id="svg_38" d="m221.610001,22.959999c-0.059998,-1.119999 0.279999,-4.379999 2,-2.549999c2.139999,1.110001 -1.100006,2.17 -2,2.549999z" fill="#231f20"/>
  <path id="svg_39" d="m41.330002,22.51c0.519997,0 1.57,0 2.089996,0c0.030003,0.57 0.080002,1.699999 0.110001,2.26c-0.559998,0.029999 -1.66,0.09 -2.219997,0.119999c0.009998,-0.599998 0.02,-1.789999 0.02,-2.379999z" fill="#fefefe"/>
  <path id="svg_40" d="m55.529999,22.49c0.52,0.01 1.550003,0.02 2.07,0.030001c0.02,0.58 0.040001,1.74 0.060001,2.32c-0.57,-0.01 -1.700001,-0.02 -2.27,-0.02c0.040001,-0.59 0.110001,-1.75 0.139999,-2.33z" fill="#fefefe"/>
  <path id="svg_41" d="m73.860001,22.74c0.5,-0.129999 1.489998,-0.379999 1.989998,-0.51c0.190002,2.140001 0.32,4.41 -1.879997,5.560001c-0.040001,-1.68 -0.080002,-3.360001 -0.110001,-5.050001z" fill="#fefefe"/>
  <path id="svg_42" d="m85.400002,22.51c1.419998,-1.15 3.159996,1.280001 1.720001,2.33c-1.420006,1.139999 -3.200005,-1.299999 -1.720001,-2.33z" fill="#fefefe"/>
  <path id="svg_43" d="m26.719999,29.049999c113.929995,0.030001 227.860003,-0.019999 341.79001,0.030001c-0.040009,46.390001 -0.02002,92.790003 -0.01001,139.190004c-113.929993,-0.020004 -227.860001,0 -341.790001,-0.01001c0.030001,-46.399994 0.01,-92.799995 0.01,-139.209995z" fill="#fefefe"/>
  <path id="svg_44" d="m29.08,31.34c112.390001,0.059999 224.780001,-0.049999 337.17,0.059999c-0.040009,44.809999 -0.019989,89.629999 -0.01001,134.450006c-112.37999,0.029999 -224.769989,0 -337.15999,0.019989c0,-44.839996 0,-89.689995 0,-134.529995z" fill="#231f20"/>

  <path id="svg_46" d="m318.540009,41.439999c11.889984,-0.02 23.789978,-0.099998 35.679993,0.050003c-0.089996,11.759998 0.209991,23.529995 -0.140015,35.279995c-11.829987,0.300003 -23.720001,0.520004 -35.549988,0.050003c-0.01001,-11.790001 -0.040009,-23.59 0.01001,-35.380001z" fill="#fefefe"/>
    
  <path id="svg_47" d="m65.709999,42.290001c8.090004,-0.360001 16.190002,-0.16 24.279999,-0.220001c2.130005,-0.23 3.980003,0.760002 5.590004,2.040001c-1.669998,6.559998 -2.349998,13.32 -3.669998,19.949997c-0.230003,2.450005 -2.380005,3.889999 -3.970001,5.470001c-0.990005,-1.349998 -2.950005,-2.43 -2.560005,-4.369995c0.530006,-5.510002 2.090004,-10.870003 2.740005,-16.370003c-4.970001,-0.48 -9.959999,-0.130001 -14.940002,-0.18c-3.769997,0.189999 -5.559998,-3.75 -7.470001,-6.32z" fill="#820000"/>
  <path id="svg_49" d="m165.809998,42.27c9.070007,0 18.150009,-0.139999 27.220001,0.009998c0.960007,0.100002 3.080002,0.41 2.619995,1.850002c-0.860001,6.649998 -2.339996,13.219997 -3.449997,19.829998c-0.12999,2.330002 -1.970001,3.809998 -3.520004,5.279999c-1,-0.57 -2,-1.139999 -3,-1.709999c0.360001,1.090004 0.720001,2.18 1.090012,3.270004c-0.880005,0.709999 -1.75,1.43 -2.639999,2.110001c-4.910004,1.169998 -10.100006,0.369995 -15.12001,0.549995c-2.199997,0.340004 -3.689987,-1.419998 -5.299988,-2.580002l0.519989,-0.549995c0.970001,-1.020004 1.940002,-2.040001 2.900009,-3.060005c6.139999,-0.07 12.269989,-0.139999 18.399994,0.210007c0.699997,-5.140003 1.369995,-10.310005 2.479996,-15.380005c0.62001,-3.779999 4.100006,-5.959999 6.440002,-8.649998c-2.160004,1.57 -4.149994,3.419998 -6.529999,4.66c-5.669998,0.899998 -11.459991,0.169998 -17.179993,0.239998c-1.529999,-1.919998 -3.070007,-3.829998 -4.639999,-5.73l-0.290009,-0.349998z" fill="#ed1c24"/>
  <path id="svg_50" d="m216.020004,42.450001c9.819992,-0.43 19.649994,-0.200001 29.470001,-0.139999c-1.990005,2.18 -4.130005,4.209999 -6.340012,6.169998c-6.029999,-0.060001 -12.059998,0.040001 -18.099991,-0.099998c-1.660004,-1.98 -3.350006,-3.950001 -5.029999,-5.93z" fill="#ed1c24"/>
  <path id="svg_51" d="m166.100006,42.619999c1.569992,1.900002 3.110001,3.810001 4.639999,5.73c-1.520004,6.25 -2.460007,12.610001 -3.610001,18.919998c-0.960007,1.020004 -1.930008,2.040001 -2.900009,3.060005c-0.98999,-1.450005 -2.569992,-2.669998 -2.959991,-4.450005c-0.029999,-2.769997 0.759995,-5.459999 1.25,-8.159996c1.059998,-5.060001 1.149994,-10.420002 3.580002,-15.100002z" fill="#820000"/>

  <path id="btnup" d="m320.149994,42.880001c10.869995,-0.010002 21.740021,-0.030003 32.610016,0.009998c0.039978,10.860001 -0.02002,21.730003 0.039978,32.590004c-10.949982,0.019997 -21.899994,0.059998 -32.849976,-0.020004c0.419983,-10.860001 0.059998,-21.73 0.199982,-32.579998z" fill="#231f20"/>

  <path id="svg_53" d="m64.290001,43.82c1.669998,1.630001 3.629997,3.09 4.659996,5.23c0.270004,5.080002 -1.409996,10.02 -2.089996,15.02c-0.169998,2.5 -2.349998,3.980003 -3.920002,5.629997c-1.219997,-1.57 -3.199997,-3.059998 -2.48,-5.299995c1.150002,-6.880001 2.41,-13.75 3.830002,-20.580002z" fill="#820000"/>
  <path id="svg_54" d="m114.970001,43.349998c1.729996,1.900002 3.419998,3.84 5.080002,5.810001c-0.860001,4.920002 -1.630005,9.869999 -2.610001,14.77c-0.18,2.449997 -2.25,3.970001 -3.760002,5.659996c-1.139999,-1.349998 -3.169998,-2.519997 -2.550003,-4.599998c0.920006,-7.259998 2.590004,-14.419998 3.840004,-21.639999z" fill="#ed1c24"/>
  <path id="svg_56" d="m187.919998,48.110001c2.380005,-1.240002 4.369995,-3.09 6.529999,-4.66c-2.339996,2.689999 -5.819992,4.869999 -6.440002,8.649998c-1.110001,5.07 -1.779999,10.240002 -2.479996,15.380005c-6.130005,-0.350006 -12.259995,-0.280006 -18.399994,-0.210007c1.149994,-6.309998 2.089996,-12.669998 3.610001,-18.919998c5.720001,-0.07 11.509995,0.66 17.179993,-0.239998z" fill="#670000"/>
  <path id="svg_57" d="m210.649994,66.269997c1.610001,-7.709995 2.779999,-15.499996 4.340012,-23.219997c1.939987,1.869999 4.029999,3.66 5.449997,5.98c-0.279999,5.050003 -1.559998,9.990002 -2.419998,14.970001c-0.190002,2.620003 -2.419998,4.209999 -4.080002,5.940002c-1.110001,-1.209999 -2.199997,-2.440002 -3.290009,-3.670006z" fill="#ed1c24"/>
  <path id="svg_58" d="m239.639999,49.529999c1.729996,-2.599998 4.490005,-4.259998 6.910004,-6.16c-0.729996,6.130001 -2.059998,12.16 -3.029999,18.25c-0.470001,2.450001 -0.680008,5.399998 -3.100006,6.790005c-1.699997,1.609993 -2.959991,-1.090004 -4.139999,-2c1.449997,-5.560005 1.699997,-11.380005 3.360001,-16.880005z" fill="#ed1c24"/>
  <path id="svg_59" d="m325.149994,58.290001c3.75,-3.93 7.490021,-7.920002 11.790009,-11.260002c3.889984,3.800003 7.839996,7.560001 11.529999,11.540001c1.139984,1.080002 -0.110016,2.650002 -1.360016,2.860001c-3.709991,-3.07 -6.879974,-6.720001 -10.299988,-10.099998c-3.369995,3.139999 -6.329987,6.709999 -9.910004,9.619999c-1.290009,1.779999 -3.630005,-1.760002 -1.75,-2.66z" fill="#fefefe"/>
  <path id="svg_60" d="m267.220001,52.189999c3.450012,-2.43 8.859985,0.5 8.670013,4.73c0.579987,4.010002 -3.910004,7.090004 -7.560028,5.730003c-4.649994,-1.16 -5.299988,-8.280003 -1.109985,-10.460003z" fill="#ed1c24"/>
  <path id="svg_61" d="m280.059998,62.110001c-2.25,-2.490002 -2.209991,-7.66 1,-9.360001c2.480011,-1.029999 3.940002,1.560001 4.720001,3.459999c-1.450012,-0.41 -2.769989,-1.07 -4.179993,-1.57c-1.149994,1.900002 -1.080017,4.190002 0,6.100002c1.429993,-0.68 2.72998,-1.580002 4.160004,-2.280003c0,3.060001 -2.860016,5.470001 -5.700012,3.650002z" fill="#fefefe"/>
  <path id="svg_62" d="m287.070007,55.529999c-0.790009,-0.779999 -1.149994,-1.719997 -1.080017,-2.82c1.900024,0.620003 5.070007,-0.889999 6.140015,1.380001c-0.610016,0.349998 -1.820007,1.040001 -2.429993,1.389999c-0.01001,2.299999 -0.01001,4.600002 -0.02002,6.900002c-0.529999,-0.010002 -1.570007,-0.030003 -2.089996,-0.040001c-0.049988,-2.27 0.209991,-4.619999 -0.519989,-6.810001z" fill="#fefefe"/>
  <path id="svg_63" d="m292.570007,53.599998c1.639984,-0.399998 3.570007,-1.739998 5.109985,-0.329998c3.309998,2.610001 1.860016,10.789997 -3.299988,9.23c-3.459991,-1.529999 -2.619995,-5.970001 -1.809998,-8.900002z" fill="#fefefe"/>
  <path id="svg_64" d="m300.279999,52.880001c2.059998,0 4.140015,0.009998 6.209991,0.009998c0.040009,3.139999 0.040009,6.290001 0.029999,9.440002l-2.129974,0.039997c-0.01001,-2.419998 0.089996,-4.84 -0.050018,-7.259998c-0.480011,-0.049999 -1.440002,-0.150002 -1.919983,-0.190002c-0.150024,2.450001 -0.080017,4.910004 -0.080017,7.360001l-2.100006,0.120003c0.02002,-3.170002 0.029999,-6.350002 0.040009,-9.52z" fill="#fefefe"/>
  <path id="svg_65" d="m294.399994,60.5c-0.290009,-2.400002 -0.759979,-5.25 1.869995,-6.459999c0.720001,2.119999 0.700012,4.349998 0.440002,6.540001c-0.579987,-0.02 -1.72998,-0.060001 -2.309998,-0.080002z" fill="#231f20"/>
  <path id="svg_66" d="m335.140015,58.029999c0.75,-0.93 2.159973,-1.329998 2.97998,-0.219997c3.440002,3.279999 6.820007,6.630001 10.080017,10.079998c1.419983,1.010002 0.470001,2.989998 -1.070007,3.120003c-3.700012,-3.040001 -6.839996,-6.709999 -10.27002,-10.040001c-3.419983,3.190002 -6.469971,6.769997 -10.029999,9.790001c-1.429993,0.279999 -2.269989,-0.310005 -2.519989,-1.790001c3.299988,-3.93 7.130005,-7.389999 10.830017,-10.940002z" fill="#fefefe"/>
  <path id="svg_67" d="m67.300003,67.379997c4.889999,-0.629997 9.869995,-0.379997 14.789993,-0.199997c2.080002,-0.110001 3.400002,1.690002 4.710007,3.019997c1.519997,1.790001 3.479996,3.840004 2.759995,6.410004c-1.329994,6.830002 -2.110001,13.790001 -4.089996,20.470001c-2.029999,-2.639999 -5.410004,-5.290001 -4.279999,-9.060005c1.029999,-5.409996 0.939995,-11.489998 4.589996,-15.969994c-3.400002,1.449997 -7.089996,1.719994 -10.739998,1.529999c-3.959999,-0.25 -8.760002,1.239998 -11.560001,-2.510002c1.23,-1.269997 2.369999,-2.659996 3.820004,-3.690002z" fill="#820000"/>
  <path id="svg_69" d="m185.679993,67.529999c1,0.57 2,1.139999 3,1.709999c-0.099991,0.380005 -0.299988,1.150002 -0.399994,1.529999c0.940002,1.730003 2.639999,3.410004 2.169998,5.560005c-1.149994,6.93 -2.48999,13.839996 -3.800003,20.739998c-2.119995,-2.260002 -5.169998,-4.610001 -4.720001,-8.099998c0.480011,-5.389999 2.430008,-10.590004 2.200012,-16.059998c0.889999,-0.68 1.759995,-1.400002 2.639999,-2.110001c-0.37001,-1.090004 -0.730011,-2.18 -1.090012,-3.270004z" fill="#820000"/>
  <path id="svg_70" d="m213.860001,70.879997c1.589996,-1.269997 2.850006,-3.540001 5.110001,-3.579994c5.020004,-0.160004 10.059998,-0.139999 15.089996,-0.010002c1.850006,-0.110001 2.820007,1.900002 4.199997,2.779999c-1.619995,1.230003 -2.939987,3.440002 -5.23999,3.340004c-5,0.129997 -10.01001,0.159996 -15.01001,-0.020004c-1.729996,-0.010002 -2.779999,-1.729996 -4.149994,-2.510002z" fill="#ed1c24"/>
  <path id="svg_71" d="m62.290001,70.989998c0.919998,1.529999 2.650002,2.910004 2.330002,4.880005c-0.620003,5.409996 -1.910004,10.719994 -2.680004,16.110001c5.970005,0.219994 11.939999,0.139999 17.91,0.109993c1.440002,1.940002 2.860001,3.910004 4.239998,5.900002c-9.259995,0.389999 -18.559998,-0.299995 -27.799995,0.520004c-2.299999,-3.790001 -0.330002,-8.18 0.16,-12.190002c1.239998,-5.309998 0.52,-12.07 5.84,-15.330002z" fill="#820000"/>
  <path id="svg_72" d="m108.690002,76.629997c0.369995,-2.509995 2.43,-4.119995 4.149994,-5.769997c0.93,1.589996 2.570007,3.080002 2.170006,5.099998c-0.639999,6.340004 -1.920006,12.650002 -4.560005,18.470001c-1.129997,1.010002 -2.259995,2.019997 -3.409996,2.989998c-2.620003,-0.220001 -1.529999,-2.849998 -1.410004,-4.559998c1.040001,-5.400002 1.920006,-10.840004 3.060005,-16.230003z" fill="#820000"/>
  <path id="svg_73" d="m158.759995,76.080002c0.26001,-2.389999 2.520004,-3.639999 4.070007,-5.200005c3.889999,3.630005 1.270004,8.740005 0.759995,13.150002c-0.709991,2.919998 -0.360001,6.57 -2.959991,8.639999c-1.75,1.660004 -3.690002,3.120003 -5.600006,4.599998c1.009995,-7.099998 2.389999,-14.149994 3.729996,-21.189995z" fill="#ed1c24"/>
  <path id="svg_74" d="m238.25,70.720001c1.089996,1.619995 3.130005,3.059998 2.559998,5.260002c-1.050003,7.189995 -2.550003,14.309998 -3.899994,21.439995c-2.029999,-1.989998 -3.910004,-4.119995 -5.660004,-6.349998c1.029999,-4.980003 1.679993,-10.029999 2.770004,-15c0.389999,-2.400002 2.699997,-3.690002 4.229996,-5.349998z" fill="#ed1c24"/>
  <path id="svg_75" d="m133.830002,77.029999c0.149994,-2.75 2.5,-4.379997 4.279999,-6.129997c0.740005,1.599998 2.610001,3.040001 2.179993,4.979996c-1.219986,7.110001 -2.529999,14.200005 -3.919998,21.280006c-1.699997,-2.060005 -3.75,-3.920006 -4.87999,-6.370003c0.449997,-4.629997 1.569992,-9.18 2.339996,-13.760002z" fill="#ed1c24"/>
  <path id="svg_76" d="m208.800003,76.849998c0.099991,-2.82 2.580002,-4.369995 4.440002,-6.07c1.080002,1.590004 3.229996,2.970001 2.559998,5.18c-0.790009,5 -1.430008,10.07 -2.850006,14.940002c-1.819992,2.879997 -4.869995,4.629997 -7.649994,6.439995c0.929993,-6.869995 2.389999,-13.649994 3.5,-20.489998z" fill="#ed1c24"/>
  <path id="svg_77" d="m267.359985,80.529999c3.600006,-2.57 9.450012,1.07 8.530029,5.510002c0.149994,5 -7.310028,7.269997 -10.140015,3.269997c-2.429993,-2.669998 -1.459991,-7.07 1.609985,-8.779999z" fill="#ed1c24"/>
  <path id="svg_78" d="m287.019989,80.290001c0.720001,0.029999 2.140015,0.089996 2.850006,0.120003c0.209991,1.399994 0.440002,2.809998 0.670013,4.219994c-0.649994,-1.139999 -1.309998,-2.259995 -1.970001,-3.379997c-0.899994,2.629997 -1.730011,5.919998 -0.240021,8.449997c0.26001,0.150002 0.779999,0.440002 1.050018,0.580002l0.23999,0.230003c-1.570007,0.470001 -3.199982,0.07 -4.709991,-0.360001c0.329987,-0.020004 0.980011,-0.060005 1.309998,-0.080002l1.100006,-0.010002c-0.190002,-0.699997 -0.559998,-2.089996 -0.740021,-2.790001c1,-2.219994 0.430023,-4.649994 0.440002,-6.979996z" fill="#54b54b"/>
  <path id="svg_79" d="m282.779999,80.779999c3.269989,-0.629997 2.600006,4.620003 3.799988,6.489998c0.180023,0.700005 0.550018,2.090004 0.740021,2.790001l-1.100006,0.010002c-2.209991,-2.599998 -4.130005,-1.010002 -5.959991,0.660004c-0.100006,-3.470001 1.209991,-6.800003 2.519989,-9.950005z" fill="#fefefe"/>
  <path id="svg_80" d="m288.329987,89.699997c-1.48999,-2.529999 -0.659973,-5.82 0.240021,-8.449997c0.660004,1.120003 1.320007,2.239998 1.970001,3.379997c1.940002,-0.369995 1.619995,-2.369995 1.859985,-3.860001l1.899994,0.060005c-0.559998,3.290001 1.52002,7.849998 -1.73999,10.040001c-0.220001,-1.630005 -0.410004,-3.260002 -0.559998,-4.889999c-2.859985,-0.140007 -1.559998,2.989998 -2.619995,4.299995c-0.27002,-0.139999 -0.790009,-0.43 -1.050018,-0.580002z" fill="#fefefe"/>
  <path id="svg_81" d="m318.549988,117.400002c-0.059998,-11.880005 -0.119995,-23.770004 0.029999,-35.650002c11.860016,0.029999 23.730011,-0.059998 35.590027,0.050003c0.089996,11.849998 0.049988,23.699997 0.019989,35.549995c-11.880005,0.139999 -23.76001,0.050003 -35.640015,0.050003z" fill="#fefefe"/>
 
  <path id="svg_82" d="m319.790009,83.220001c10.959991,-0.050003 21.910004,0.010002 32.869995,-0.040001c-0.01001,10.900002 -0.040009,21.790001 0.01001,32.690002c-10.960022,-0.020004 -21.920013,0.019997 -32.880005,-0.030006c0.009979,-10.869995 0.009979,-21.75 0,-32.619995z" fill="#231f20"/>
 
  <path id="svg_83" d="m282.940002,84.559998c1.380005,-1.089996 2.459991,1.400002 1.419983,2.310005c-1.399994,1.199997 -2.599976,-1.410004 -1.419983,-2.310005z" fill="#231f20"/>
  <path id="svg_84" d="m324.420013,88.870003c0.409973,-0.32 1.22998,-0.950005 1.639984,-1.270004c3.98999,2.900002 7.059998,6.849998 10.690002,10.169998c3.200012,-3.149994 6.149994,-6.579994 9.600006,-9.469994c1.329987,-1.110001 3.380005,0.809998 2.209991,2.119995c-3.309998,3.75 -6.950012,7.209999 -10.559998,10.68c-1.290009,1.529999 -2.950012,-0.119995 -3.910004,-1.119995c-3.130005,-3.32 -6.660004,-6.280006 -9.51001,-9.840004l-0.159973,-1.269997z" fill="#fefefe"/>
  <path id="svg_85" d="m90.32,92.220001c2.110001,-0.050003 4.209999,-0.099998 6.32,-0.150002c-0.330002,1.989998 -0.659996,3.970001 -0.989998,5.959999c-2.169998,-0.010002 -4.349998,-0.029999 -6.520004,-0.040001c0.389999,-1.919998 0.790001,-3.849998 1.190002,-5.769997z" fill="#820000"/>
  <path id="svg_86" d="m140.679993,92.769997c1.830002,-1.109993 4.240005,-0.5 6.310013,-0.759995c-0.270004,1.959999 -0.419998,3.970001 -1.150009,5.839996c-2,0.410004 -4.059998,0.290001 -6.089996,0.290001c0.259995,-1.790001 0.279999,-3.659996 0.929993,-5.370003z" fill="#820000"/>
  <path id="svg_87" d="m163.119995,92.400002c5.800003,-0.480003 11.650009,-0.050003 17.460007,-0.110001c1.429993,1.979996 2.860001,3.949997 4.279999,5.940002c-9.619995,0.079994 -19.240005,0.159996 -28.860001,-0.050003c2.259995,-2.040001 4.300003,-4.510002 7.119995,-5.779999z" fill="#ed1c24"/>
  <path id="svg_88" d="m190.360001,92.209999c2.149994,0.050003 4.300003,0.099998 6.449997,0.160004c-0.319992,1.939995 -0.630005,3.879997 -0.949997,5.829994c-2.139999,0.050003 -4.289993,0.100006 -6.430008,0.150002c0.300003,-2.040001 0.610001,-4.089996 0.930008,-6.139999z" fill="#ed1c24"/>
  <path id="svg_89" d="m241.160004,92.18c2.199997,-0.010002 4.399994,-0.010002 6.610001,-0.019997c-0.320007,1.909996 -0.650009,3.82 -0.960007,5.729996c-1.970001,0.239998 -3.929993,0.480003 -5.880005,0.720001c0.070007,-2.139999 0.150009,-4.290001 0.230011,-6.43z" fill="#820000"/>
  <path id="svg_90" d="m110.449997,94.43c0.620003,-0.550003 1.860001,-1.639999 2.480003,-2.18c5.800003,-0.019997 11.599998,0.059998 17.390007,-0.120003c1.62999,1.82 3.25,3.650002 4.649994,5.660004c-2.600006,0.720001 -5.330002,0.540001 -8,0.540001c-6.93,-0.130005 -13.860001,0.110001 -20.790001,-0.160004l0.860001,-0.75c1.150002,-0.970001 2.279999,-1.979996 3.409996,-2.989998z" fill="#ed1c24"/>
  <path id="svg_91" d="m206.160004,98.18c3.039993,-2.25 5.529999,-6.370003 9.779999,-5.959999c5.029999,0.07 10.069992,-0.220001 15.080002,0.209999c1.959991,1.559998 3.209991,3.790001 4.659988,5.790001c-9.839996,0.099998 -19.689987,0.169998 -29.519989,-0.040001z" fill="#ed1c24"/>

  <path id="btndown" d="m325.179993,100.599998c-1.539978,-1.299995 -0.419983,-4.220001 1.77002,-2.720001c3.659973,2.590004 6.119995,7.130005 10.049988,9.020004c3.51001,-2.919998 6.269989,-6.660004 9.910004,-9.440002c1.639984,-0.099998 2.559998,1.809998 1.459991,2.940002c-3.690002,3.949997 -7.600006,7.699997 -11.47998,11.459999c-4.230011,-3.400002 -7.880005,-7.43 -11.710022,-11.260002z" fill="#fefefe"/>

  <path id="svg_94" d="m267.48999,109.660004c4,-1.820007 9.100006,1.829994 8.160004,6.269997c-0.380005,4.519997 -6.869995,6.540001 -9.839996,3.209999c-2.899994,-2.629997 -1.889984,-7.949997 1.679993,-9.479996z" fill="#ed1c24"/>
  <path id="svg_95" d="m278.200012,109.260002c2.049988,0.139999 4.279999,-0.32 6.22998,0.449997c1.779999,1.169998 0.800018,3.389999 0.160004,4.910004c0.369995,1.799995 0.649994,3.619995 0.869995,5.449997c-2.5,-0.309998 -1.839996,-2.980003 -2.410004,-4.599998c-0.779999,-0.059998 -2.349976,-0.18 -3.129974,-0.239998c-0.130005,1.689995 -0.320007,3.379997 -0.550018,5.059998c-2.48999,-3.020004 -0.72998,-7.440002 -1.169983,-11.029999z" fill="#fefefe"/>
  <path id="svg_96" d="m287.390015,112.099998c0.569977,-4.089996 7.389984,-3.529999 7.419983,0.730003c-1.589996,-1.029999 -5.639984,-3.690002 -5.609985,-0.040001c2.119995,1.360001 6.399994,1.489998 5.399994,5.07c-1.130005,4.18 -8.380005,2.540001 -7.570007,-1.93c1.829987,1.220001 3.570007,4.059998 5.98999,2.220001c0.809998,-3.980003 -6.160004,-2.07 -5.629974,-6.050003z" fill="#fefefe"/>
  <path id="svg_97" d="m226.360001,110.5c4.069992,-1.860001 9.199997,2.040001 8.069992,6.489998c-0.609985,4.580002 -7.289993,6.290001 -10.069992,2.660004c-2.529999,-2.739998 -1.449997,-7.700005 2,-9.150002z" fill="#ed1c24"/>
  <path id="svg_98" d="m189.350006,111.339996c4.199997,-2.949997 10.48999,1.690002 8.759995,6.570007c-1.020004,4.32 -7.460007,5.549995 -10.070007,2.049995c-2.369995,-2.519997 -1.539993,-6.839996 1.310013,-8.620003z" fill="#ed1c24"/>
  <path id="svg_99" d="m200.720001,121.269997c0.490005,-3.269997 -1.160004,-7.419998 0.970001,-10.129997c0.289993,1.25 0.529999,2.5 0.729996,3.770004c1.210007,-1.540001 2.449997,-3.120003 4.309998,-3.910004c-0.98999,1.800003 -2.209991,3.459999 -3.479996,5.080002c1.350006,1.82 2.639999,3.689995 3.669998,5.729996c-2.25,-0.809998 -3.399994,-2.889999 -4.720001,-4.689995c0.020004,1.040001 0.050003,3.110001 0.059998,4.149994l-1.539993,0z" fill="#fefefe"/>
  <path id="svg_100" d="m208.419998,114.620003c-0.720001,-1.600006 1.25,-2.470001 2.050003,-3.540001c-0.139999,3.589996 1.100006,7.619995 -0.809998,10.889999c-0.350006,-2.459999 -0.139999,-5.050003 -1.240005,-7.349998z" fill="#fefefe"/>
  <path id="svg_101" d="m236.589996,111.290001c0.410004,-0.020004 1.240005,-0.040001 1.650009,-0.050003c0.039993,0.870003 0.110001,2.620003 0.139999,3.5c0.610001,-0.849998 1.809998,-2.549995 2.409988,-3.400002c0.470001,-0.039993 1.410004,-0.129997 1.87001,-0.169998c-1.12001,1.5 -2.26001,3 -3.389999,4.490005c1.050003,1.529999 2.089996,3.079994 2.87999,4.769997c1.840012,-2.650002 7.230011,-5.129997 4.340012,-8.739998c-1.050003,0.899994 -1.51001,2.669998 -3.029999,2.949997c0.23999,-1.220001 0.179993,-2.919998 1.589996,-3.440002c1.389999,-1.019997 3.690002,0.07 3.839996,1.780006c0.779999,2.849998 -2.339996,4.459999 -3.789993,6.379997c0.929993,0 2.789993,0.010002 3.729996,0.010002c0.020004,0.339996 0.069992,1.029999 0.099991,1.369995c-2.619995,0 -5.229996,-0.009995 -7.839996,-0.029999c-0.919998,-1.279999 -1.849991,-2.549995 -2.779999,-3.809998c-0.009995,0.939995 -0.020004,2.830002 -0.020004,3.779999c-0.419998,0 -1.269989,0.019997 -1.699997,0.029999c0.020004,-3.139999 0.020004,-6.279999 0,-9.419998z" fill="#fefefe"/>
  <path id="svg_102" d="m279.809998,110.360001c1.420013,0.279999 2.830017,0.599998 4.23999,0.940002c-0.419983,2.199997 -2.199982,2.779999 -4.25,2.769997c0.01001,-0.93 0.01001,-2.779999 0.01001,-3.709999z" fill="#231f20"/>
  <path id="svg_103" d="m91.050003,118.580002c6.189995,0.139999 12.529999,-0.880005 18.589996,0.82c-1.040001,4.489998 -1.489998,9.099998 -2.699997,13.549995c-0.300003,1.169998 -1.420006,2.339996 -2.730003,1.880005c-2.120003,-3.820007 0.68,-8.480003 0.82,-12.610001c-3.709999,-0.020004 -7.419998,-0.010002 -11.129997,0.010002c-0.950005,-1.210007 -1.910004,-2.43 -2.849998,-3.650002z" fill="#54b54b"/>
  <path id="svg_104" d="m119.779999,118.610001c5.730003,-0.199997 11.460007,-0.110001 17.199997,-0.080002c-0.649994,1.099998 -1.289993,2.190002 -1.929993,3.290001c1.080002,-0.949997 2.149994,-1.900002 3.23999,-2.839996c-0.73999,4.639999 -1.199997,9.359993 -2.5,13.889992c-0.12999,1.710007 -3.119995,3.270004 -3.619995,0.950012c0.050003,-3.940002 1.160004,-7.770004 1.770004,-11.640007c-3.660004,-0.010002 -7.340004,0.290001 -10.970001,-0.160004c-1.459999,-0.659996 -2.120003,-2.32 -3.190002,-3.409996z" fill="#54b54b"/>
  <path id="svg_105" d="m149.240005,118.580002c6.179993,0.150002 12.529999,-0.919998 18.559998,0.869995c-1.059998,4.540001 -1.389999,9.240005 -2.669998,13.729996c-0.37001,1.800003 -3.270004,2.650009 -3.639999,0.430008c0.039993,-3.889999 1.319992,-7.639999 2.119995,-11.419998c-3.889999,0.029999 -7.770004,0.029999 -11.660004,0c-0.899994,-1.200005 -1.809998,-2.400002 -2.709991,-3.610001z" fill="#54b54b"/>
  <path id="svg_106" d="m90.059998,119.150002c1.130005,1.199997 2.25,2.409996 3.370003,3.629997c-0.879997,4.459999 -1.489998,9.050003 -3.480003,13.199997c-0.559998,-0.539993 -1.689995,-1.62999 -2.25,-2.179993c0.07,-4.960007 1.650002,-9.760002 2.360001,-14.650002z" fill="#54b54b"/>
  <path id="svg_107" d="m148.25,119.309998c1.130005,1.150002 2.25,2.32 3.369995,3.480003c-0.899994,3.709999 -1.009995,7.719994 -2.610001,11.209999c-0.709991,1.839996 -3.419998,1.119995 -3.049988,-0.830002c0.329987,-4.679993 1.539993,-9.239998 2.289993,-13.860001z" fill="#54b54b"/>
  <path id="svg_108" d="m318.959991,122.269997c11.640015,-0.099998 23.290009,-0.059998 34.930023,-0.019997c0.069977,11.679993 0.019989,23.360001 0.029999,35.039993c-11.670013,0.030014 -23.340027,0.080002 -35.01001,-0.029999c0.029999,-11.659988 -0.059998,-23.330002 0.049988,-34.989998z" fill="#fefefe"/>
  <path id="svg_109" d="m320.320007,155.789993c0.039978,-10.709991 -0.050018,-21.419998 0.049988,-32.119995c10.75,0.050003 21.5,0.029999 32.25,0.010002c0.080017,10.700005 -0.01001,21.409996 0.040009,32.109993c-10.779999,-0.029999 -21.559998,-0.029999 -32.339996,0z" fill="#231f20"/>
  <path id="svg_110" d="m92.029999,134.220001c3.590004,-0.5 7.25,-0.330002 10.849998,0.009995c0.760002,1.5 0.080002,3.699997 -1.839996,3.669998c-3.730003,0.220001 -7.840004,0.75 -11.279999,-1c0.509995,-1.019989 0.909996,-2.549988 2.269997,-2.679993z" fill="#54b54b"/>
  <path id="svg_111" d="m117.830002,136.020004c3.699997,-3.029999 8.759995,-2.130005 13.149994,-1.830002c1.590012,-0.070007 2.740005,3.029999 0.550003,3.199997c-4.440002,0.789993 -9.979996,1.940002 -13.699997,-1.369995z" fill="#54b54b"/>
  <path id="svg_112" d="m323.079987,135.449997c1.870026,-0.160004 3.75,-0.119995 5.640015,-0.139999c-0.070007,3.139999 0.480011,6.389999 -0.410004,9.460007c-2.859985,-1.180008 -0.919983,-5.290009 -1.5,-7.76001c-0.570007,0.020004 -1.700012,0.080002 -2.269989,0.110001c0.009979,2.410004 0.009979,4.820007 0.019989,7.230011l-1.720001,0c0.050018,-2.970001 -0.230011,-5.960007 0.23999,-8.900009z" fill="#fefefe"/>
  <path id="svg_113" d="m330.190002,135.220001c1.829987,0.339996 4.5,-0.540009 5.369995,1.679993c0.98999,2.570007 -1.480011,4.190002 -3.669983,4.5c-0.440002,1.040009 0.359985,3.800003 -1.550018,3.050003c-0.5,-3.050003 -0.209991,-6.160004 -0.149994,-9.229996z" fill="#fefefe"/>
  <path id="svg_114" d="m337.51001,135.600006c3.970001,-2.279999 6.339996,3.199997 4.98999,6.369995c-0.359985,2.729996 -4.359985,3.559998 -5.799988,1.319992c-1.600006,-2.279999 -1.230011,-5.829987 0.809998,-7.689987z" fill="#fefefe"/>
  <path id="svg_115" d="m343.709991,135.350006c1.850006,0.009995 3.710022,0.049988 5.559998,0.229996c-0.97998,1.209991 -2.48999,1.509995 -3.910004,1.849991c0.040009,2.310013 0.050018,4.610001 0.060028,6.930008l-1.700012,-0.029999c0.049988,-2.990005 0.040009,-5.990005 -0.01001,-8.979996z" fill="#fefefe"/>
  <path id="svg_116" d="m104.099998,136.929993c1.459999,-0.37999 1.940002,2.030014 1.639999,3.090012c-0.439995,4.190002 -1.43,8.289993 -2.139999,12.429993c-1.139999,-1.069992 -2.269997,-2.160004 -3.389999,-3.23999c1.090004,-4.070007 0.419998,-9.280014 3.889999,-12.280014z" fill="#54b54b"/>
  <path id="svg_117" d="m131.779999,137.929993c0.759995,-1.819992 3.440002,-0.729996 2.910004,1.090012c-0.380005,4.539993 -1.580002,8.970001 -2.449997,13.440002c-1.040009,-1.170013 -2.070007,-2.320007 -3.100006,-3.480011c0.869995,-3.659988 0.589996,-7.809998 2.639999,-11.050003z" fill="#54b54b"/>
  <path id="svg_118" d="m142.399994,152.369995c1.350006,-5.459991 0.580002,-11.959991 4.639999,-16.369995c2.910004,3.509995 0.389999,8.080002 -0.149994,11.979996c-0.240005,2.380005 -2.869995,3.130005 -4.490005,4.389999z" fill="#54b54b"/>
  <path id="svg_119" d="m160.410004,139.190002c0.23999,-1.300003 1.389999,-2.080002 2.529999,-2.559998c1.020004,0.909988 1.369995,2.039993 1.059998,3.37999c-0.490005,4.180008 -1.490005,8.279999 -2.229996,12.419998c-1.110001,-1.079987 -2.210007,-2.149994 -3.309998,-3.229996c0.610001,-3.339996 1.019989,-6.729996 1.949997,-10.009995z" fill="#54b54b"/>
  <path id="svg_120" d="m331.640015,139.320007c-1.25,-1.380005 0.889984,-3.670013 2.23999,-2.170013c1.440002,1.340012 -0.970001,3.550003 -2.23999,2.170013z" fill="#231f20"/>
  <path id="svg_121" d="m338.390015,137.309998c0.649994,-1.959991 2.809998,0.419998 2.48999,1.600006c0.01001,1.509995 0.389984,3.98999 -1.720001,4.160004c-2,-1.040009 -1.940002,-4.160004 -0.769989,-5.76001z" fill="#231f20"/>
  <path id="svg_122" d="m347.399994,142.190002c1.459991,-1.309998 2.990021,1.369995 1.570007,2.339996c-1.470001,1.149994 -3.089996,-1.369995 -1.570007,-2.339996z" fill="#fefefe"/>
  <path id="svg_123" d="m84.68,153.509995c1.379997,-1.360001 2.790001,-2.699997 4.199997,-4.019989c3.670006,0.049988 7.340004,0.059998 11.010002,0.119995c0.970001,1.270004 1.93,2.539993 2.900002,3.819992c-6.029999,0.240005 -12.07,0.180008 -18.110001,0.080002z" fill="#54b54b"/>
  <path id="svg_124" d="m113.620003,153.5c1.349998,-1.369995 2.729996,-2.710007 4.139999,-4.029999c3.669998,0.149994 7.389999,-0.259995 11.029991,0.419998c1.150009,0.990005 1.790009,2.410004 2.600006,3.669998c-5.919998,0.020004 -11.849998,0.070007 -17.769997,-0.059998z" fill="#54b54b"/>
  <path id="svg_125" d="m134.009995,149.619995c1.310013,0 2.610001,0.01001 3.910004,0.01001c-0.160004,1.279999 -0.330002,2.559998 -0.490005,3.839996c-0.979996,0.029999 -2.939987,0.089996 -3.919998,0.119995c0.130005,-0.98999 0.380005,-2.979996 0.5,-3.970001z" fill="#54b54b"/>
  <path id="svg_126" d="m142.839996,153.419998c1.600006,-1.330002 3,-3.149994 5.089996,-3.709991c3.350006,-0.420013 6.730011,-0.139999 10.100006,-0.100006c0.949997,1.289993 1.889999,2.589996 2.839996,3.889999c-6.009995,0.070007 -12.029999,0.190002 -18.029999,-0.080002z" fill="#54b54b"/>
  <path id="svg_127" d="m188.179993,150.110001c3.960007,-2.580002 9.720001,1.350006 8.62001,5.979996c-0.389999,4.610001 -7.020004,6.480011 -9.940002,3.01001c-2.570007,-2.5 -1.770004,-7.290009 1.319992,-8.990005z" fill="#ed1c24"/>
  <path id="svg_128" d="m200.009995,160.25c0.62001,-3.389999 1.560013,-6.740005 2.919998,-9.899994c0.540009,-0.029999 1.610001,-0.090012 2.150009,-0.110001c0.720001,2.889999 1.539993,5.769989 2.919998,8.429993c0.190002,-2.839996 0.179993,-5.679993 0.210007,-8.509995c0.529999,0.039993 1.569992,0.119995 2.099991,0.160004c-0.020004,2.419998 -0.029999,4.849991 -0.029999,7.279999c0.860001,-0.020004 2.589996,-0.040009 3.449997,-0.050003c0.01001,0.539993 0.029999,1.610001 0.040009,2.149994c-3.330002,-0.289993 -7.360001,1.020004 -9.790009,-1.970001c-1.330002,0.830002 -2.589996,1.770004 -3.970001,2.520004z" fill="#fefefe"/>
  <path id="svg_129" d="m237.410004,149.770004c2.779999,1.550003 1,5.37999 1.519989,7.940002c0.840012,0.039993 2.520004,0.119995 3.360001,0.159988c-0.019989,-2.539993 -0.009995,-5.080002 0.060013,-7.610001c1.649994,0.12001 3.289993,0.270004 4.939987,0.430008c0.100006,2.389999 -0.169998,4.819992 0.680008,7.130005c0.839996,-2.490005 1.509995,-5.030014 2.110001,-7.590012c0.740005,0.290009 1.910004,0.160004 1.979996,1.240005c0.889999,2.819992 1.669998,5.709991 1.839996,8.669998c-1.039993,-0.619995 -2.019989,-1.319992 -2.949997,-2.080002c-0.440002,0.330002 -1.309998,1 -1.75,1.339996c-3.979996,0.440002 -8,0.12001 -11.98999,0.320007c-0.030014,-3.320007 -0.110001,-6.639999 0.199997,-9.949997z" fill="#fefefe"/>
  <path id="svg_130" d="m225.279999,151.279999c3.190002,-2.240005 8.169998,-0.149994 8.779999,3.710007c1.220001,4.399994 -3.690002,8.360001 -7.800003,6.619995c-4.369995,-1.490005 -4.949997,-8.009995 -0.979996,-10.330002z" fill="#ed1c24"/>
  <path id="svg_131" d="m267.119995,151.270004c3.77002,-1.800003 8.670013,1.569992 8.179993,5.759995c-0.069977,4.399994 -6.179993,7.199997 -9.429993,4.089996c-3.51001,-2.429993 -2.559998,-8.259995 1.25,-9.849991z" fill="#ed1c24"/>
  <path id="svg_132" d="m243.910004,152.339996c1.580002,-0.550003 2.12999,0.01001 1.669998,1.660004c-1.570007,0.550003 -2.130005,-0.009995 -1.669998,-1.660004z" fill="#231f20"/>
  <path id="svg_133" d="m278.630005,151.5c2.47998,0.089996 7.429993,-0.410004 6.699982,3.5c0.310028,2.75 -2.669983,2.830002 -4.569977,3.059998c-0.029999,0.790009 -0.089996,2.380005 -0.119995,3.180008c-0.470001,-0.169998 -1.410004,-0.51001 -1.880005,-0.680008c-0.279999,-3.009995 -0.110016,-6.039993 -0.130005,-9.059998z" fill="#fefefe"/>
  <path id="svg_134" d="m285.049988,151.289993c2.640015,-0.319992 3.040009,2.440002 4.230011,4.040009c0.170013,-0.919998 0.51001,-2.75 0.679993,-3.660004c1.460022,-0.039993 2.930023,-0.080002 4.399994,-0.119995c0.040009,1.279999 0.090027,2.559998 0.140015,3.839996c0.48999,0.029999 1.470001,0.080002 1.959991,0.110001c0.040009,-1.320007 0.080017,-2.639999 0.130005,-3.960007l2.029999,0.050003c-0.040009,3.029999 0.25,6.100006 -0.209991,9.110001l-1.690002,0.860001c-0.089996,-1.309998 -0.170013,-2.630005 -0.230011,-3.949997c-1.259979,-0.139999 -2.5,-0.330002 -3.73999,-0.559998c-0.309998,-1.350006 -0.559998,-2.720001 -0.75,-4.089996c-0.920013,2.759995 -1.649994,5.610001 -3,8.199997c-0.859985,-0.220001 -2.559998,-0.669998 -3.420013,-0.889999c0.550018,-0.460007 1.630005,-1.389999 2.170013,-1.850006c-0.709991,-2.440002 -1.859985,-4.729996 -2.700012,-7.130005z" fill="#fefefe"/>
  <path id="svg_135" d="m280.869995,153.179993c1.01001,0.62001 1.980011,1.230011 2.970001,1.880005c-1.059998,0.309998 -2.130005,0.600006 -3.190002,0.889999c0.050018,-0.690002 0.170013,-2.080002 0.220001,-2.770004z" fill="#231f20"/>
  <path id="svg_136" d="m203.029999,154.289993c1.580002,-0.509995 2.139999,0.060013 1.660004,1.710007c-1.589996,0.509995 -2.150009,-0.050003 -1.660004,-1.710007z" fill="#54b54b"/>
  <path id="svg_137" d="m244.110001,156.119995c1.610001,-0.539993 2.169998,0.01001 1.660004,1.650009c-1.62001,0.550003 -2.169998,-0.01001 -1.660004,-1.650009z" fill="#54b54b"/>
  <path id="svg_138" d="m312.869995,172.490005c2.300018,-0.26001 4.630005,-0.26001 6.940002,0.049988c-1.119995,2.080002 -2.290009,4.139999 -3.480011,6.180008c-1.22998,-2.040009 -2.409973,-4.100006 -3.459991,-6.229996z" fill="#fefefe"/>
  <path id="svg_139" d="m29.15,173.320007c4.699999,0.159988 9.480001,-0.520004 14.129999,0.349991c1.720001,1.180008 1.600002,3.570007 0.830002,5.270004c-1.080002,1.23999 -2.959999,1.059998 -4.420002,1.539993c0.010002,1.26001 0.02,2.520004 0.030003,3.790009l-2.110001,-0.020004c-0.02,-3.360001 -0.170002,-6.75 0.299999,-10.089996c-0.27,-0.160004 -0.810001,-0.5 -1.079998,-0.660004c-0.820004,1.020004 -1.830002,1.770004 -3.040001,2.270004c-0.02,2.869995 -0.02,5.73999 -0.09,8.610001c-0.510002,-0.050003 -1.540001,-0.150009 -2.060001,-0.200012c-0.01,-2.959991 0,-5.929993 0.030001,-8.889999c-0.67,-0.019989 -1.99,-0.059998 -2.65,-0.079987c0.029999,-0.470001 0.1,-1.420013 0.129999,-1.889999z" fill="#fefefe"/>
  <path id="svg_140" d="m45.93,173.25c0.599998,0.029999 1.810001,0.089996 2.41,0.110001c0.68,2.309998 1.360001,4.619995 2.16,6.880005c0.68,-2.290009 1.310001,-4.600006 1.98,-6.900009c0.600002,-0.019989 1.810001,-0.059998 2.41,-0.080002c0.07,3.660004 0.080002,7.330002 0.049999,10.990005l-1.799999,0.009995c-0.02,-1.759995 -0.02,-3.519989 -0.040001,-5.279999c-0.789997,2.100006 -1.439999,4.320007 -3.059998,5.970001c-0.77,-2 -1.450001,-4.020004 -2.200001,-6.020004c-0.07,1.790009 -0.110001,3.590012 -0.150002,5.380005l-1.829998,-0.089996c0,-3.660004 0.009998,-7.309998 0.07,-10.970001z" fill="#fefefe"/>
  <path id="svg_141" d="m58.639999,178.130005c-0.77,-1.680008 -0.73,-4.430008 1.459999,-4.960007c1.860001,-1.089996 4.380005,0.830002 4.340004,2.869995c0.439995,2.920013 -2.660004,4.470001 -4.320004,6.300003c1.5,0.040009 3,0.089996 4.509998,0.139999c-0.079994,0.449997 -0.229996,1.340012 -0.309998,1.790009c-2.25,-0.020004 -4.5,-0.029999 -6.75,-0.070007c-0.02,-4 5.860001,-5.339996 4.5,-9.330002c-1.84,0.110001 -2.299999,2.190002 -3.43,3.26001z" fill="#fefefe"/>
  <path id="svg_142" d="m74.220001,173.25c1.860001,-1.300003 4.089996,0.940002 4.269997,2.839996c0.290001,2.710007 0.700005,6.110001 -1.579994,8.130005c-2.230003,1.410004 -4.630005,-0.850006 -4.620003,-3.139999c-0.129997,-2.589996 -0.75,-6.279999 1.93,-7.830002z" fill="#fefefe"/>
  <path id="svg_143" d="m323.470001,172.869995c2.070007,-0.009995 4.139984,-0.009995 6.220001,-0.019989c0.089996,4.459991 0.079987,8.919998 0.019989,13.37999c-2.100006,-0.019989 -4.190002,-0.019989 -6.279999,-0.029999c0.839996,-2.339996 2.210022,-4.649994 2,-7.220001c-0.199982,-2.149994 -1.25,-4.099991 -1.959991,-6.110001z" fill="#fefefe"/>
  <path id="svg_144" d="m331.619995,172.570007c1.73999,0.449997 4.459991,0.329987 5.02002,2.539993c-0.040009,1.160004 -0.25,2.309998 -0.410004,3.460007c0.929993,1.579987 2.220001,3.569992 0.919983,5.359985c-0.899994,2.230011 -3.630005,2.020004 -5.529999,2.580002c-0.109985,-4.649994 -0.100006,-9.299988 0,-13.939987z" fill="#fefefe"/>
  <path id="svg_145" d="m338.519989,172.860001c1.980011,0 3.970001,0 5.960022,0c0.039978,4.449997 0.029999,8.910004 0.009979,13.360001c-2,-0.009995 -4,-0.009995 -5.98999,0c1.519989,-4.410004 -0.420013,-8.860001 0.019989,-13.360001z" fill="#fefefe"/>
  <path id="svg_146" d="m346.279999,172.910004c0.779999,-0.020004 2.329987,-0.070007 3.100006,-0.100006c0.01001,0.860001 0.029999,2.559998 0.040009,3.419998c-0.800018,-0.019989 -2.410004,-0.059998 -3.210022,-0.089996c0.02002,-0.800003 0.050018,-2.419998 0.070007,-3.229996z" fill="#fefefe"/>
  <path id="svg_147" d="m361.26001,172.779999c1.910004,0.059998 3.839996,0.020004 5.72998,0.410004c0.390015,4.319992 0.089996,8.669998 0.170013,13c-2.029999,0.009995 -4.040009,0.029999 -6.050018,0.050003c-0.109985,-1.380005 -0.209991,-2.76001 -0.319977,-4.130005c-1.550018,-2.990005 0.48999,-6.199997 0.470001,-9.330002z" fill="#fefefe"/>
  <path id="svg_148" d="m65.470001,176.279999c1.339996,-1.179993 2.68,-2.369995 4.019997,-3.550003c0.959999,3.639999 0.75,7.449997 0.550003,11.169998c-0.550003,0.160004 -1.660004,0.490005 -2.220001,0.650009c-0.029999,-2.559998 -0.019997,-5.12001 0.029999,-7.669998c-0.599998,-0.150009 -1.790001,-0.450012 -2.379997,-0.600006z" fill="#fefefe"/>
  <path id="svg_149" d="m316.279999,182.089996c1.649994,-2.809998 3.25,-5.639999 4.899994,-8.440002c2.25,2.5 3.649994,6.150009 1.76001,9.300003c-2.330017,5.540009 -11.350006,5.190002 -13.420013,-0.389999c-1.73999,-3.029999 0.01001,-6.319992 1.630005,-8.949997c1.790009,2.779999 3.390015,5.669998 5.130005,8.479996z" fill="#fefefe"/>
  <path id="svg_150" d="m350.920013,173.160004c2.409973,-0.070007 4.819977,-0.080002 7.22998,-0.100006c-0.040009,4.380005 -0.029999,8.76001 -0.009979,13.139999c-1.990021,0.01001 -3.990021,0.020004 -5.970001,0.040009c0.059998,-4.400009 -0.070007,-8.820007 -1.25,-13.080002z" fill="#fefefe"/>
  <path id="svg_151" d="m39.700001,175.029999c0.84,0.5 3.040001,-0.059998 2.829998,1.350006c0.530003,1.769989 -1.649998,1.679993 -2.73,2.229996c-0.040001,-1.190002 -0.079998,-2.389999 -0.099998,-3.580002z" fill="#231f20"/>
  <path id="svg_152" d="m75.889999,183.279999c-2.290001,-2.319992 -2.519997,-6.800003 0.090004,-8.970001c0.849998,2.949997 0.859993,6.050003 -0.090004,8.970001z" fill="#231f20"/>
  <path id="svg_153" d="m346.279999,177.669998c0.959991,0.080002 2.869995,0.229996 3.829987,0.309998c0.170013,1.070007 0.230011,2.160004 0.320007,3.25c-1.049988,0.01001 -3.149994,0.029999 -4.190002,0.040009c0.01001,-0.900009 0.029999,-2.699997 0.040009,-3.600006z" fill="#fefefe"/>
  <path id="svg_154" d="m346.179993,182.770004c1.369995,-0.01001 2.740021,-0.01001 4.119995,-0.01001c-0.019989,1.150009 -0.029999,2.290009 -0.039978,3.440002c-1.320007,0.01001 -2.630005,0.029999 -3.940002,0.040009c-0.050018,-1.160004 -0.100006,-2.310013 -0.140015,-3.470001z" fill="#fefefe"/>
  <path id="svg_45" d="m50.09,35.32c67.009998,0.029999 134.010006,0.099998 201.010006,-0.040001c0.529999,15.220001 0.069992,30.470001 0.23999,45.700005c-0.169998,7.719994 0.270004,15.449997 -0.190002,23.159996c-2.809998,1.150002 -6.12999,0.330002 -9.12999,0.529999c-63.980011,-0.009995 -127.960007,-0.059998 -191.940002,0.010002c-0.440002,-13.860001 -0.070004,-27.739998 -0.18,-41.619999c0.099998,-9.25 -0.230003,-18.5 0.189999,-27.740002z" fill="#670000"/>
  <path id="svg_93" d="m50.130001,108.830002c36.950001,-0.419998 73.91,-0.010002 110.869999,-0.200005c3.210007,-0.040001 6.419998,0.110001 9.619995,0.350006c-0.080002,18.239998 -0.029999,36.480003 -0.029999,54.719994c-40.12999,0.139999 -80.269997,0.040009 -120.399998,0.070007c-0.27,-18.309998 -0.129997,-36.630005 -0.059998,-54.940002z" fill="#005019"/>
  <text transform="matrix(1.9279921089946583,0,0,1.7596153211899264,-90.01362291615783,-39.19065224073631) " xml:space="preserve" text-anchor="middle" font-family="serif" font-size="24" id="svg_155" y="70.055556" x="120.085159" stroke-linecap="null" stroke-linejoin="null" fill="#ed1c24">66 °C</text>
  <text transform="matrix(1.4317032098770142,0,0,1.423076868057251,-35.48735292442143,-51.61537790298462) " id="svg_156" xml:space="preserve" text-anchor="middle" font-family="serif" font-size="24" y="139.486486" x="103.030937" stroke-linecap="null" stroke-linejoin="null" fill="#00ff00">60 °C</text>

 </g>
</svg>